<svg width="40" height="40" viewBox="0 0 40 40" fill="none" xmlns="http://www.w3.org/2000/svg">
<path d="M19.9999 9.78462C16.4381 9.78462 13.5483 12.6744 13.5483 16.2362C13.5483 19.7981 16.4381 22.6878 19.9999 22.6878C23.5617 22.6878 26.4515 19.7981 26.4515 16.2362C26.4515 12.6744 23.5617 9.78462 19.9999 9.78462ZM19.9999 19.462C18.219 19.462 16.7741 18.0171 16.7741 16.2362C16.7741 14.4553 18.219 13.0104 19.9999 13.0104C21.7808 13.0104 23.2257 14.4553 23.2257 16.2362C23.2257 18.0171 21.7808 19.462 19.9999 19.462ZM19.9999 3.33301C10.7929 3.33301 3.33325 10.7927 3.33325 19.9997C3.33325 29.2067 10.7929 36.6663 19.9999 36.6663C29.2069 36.6663 36.6666 29.2067 36.6666 19.9997C36.6666 10.7927 29.2069 3.33301 19.9999 3.33301ZM19.9999 33.4405C16.6599 33.4405 13.6088 32.2107 11.2566 30.1878C12.258 28.6421 13.9717 27.5938 15.9341 27.5333C17.3319 27.9634 18.6626 28.1784 19.9999 28.1784C21.3373 28.1784 22.6679 27.9701 24.0658 27.5333C26.0281 27.6005 27.7419 28.6421 28.7432 30.1878C26.391 32.2107 23.34 33.4405 19.9999 33.4405ZM30.9341 27.7887C29.2943 25.6784 26.7607 24.3008 23.8709 24.3008C23.1854 24.3008 22.1236 24.9459 19.9999 24.9459C17.883 24.9459 16.8144 24.3008 16.129 24.3008C13.2459 24.3008 10.7123 25.6784 9.06578 27.7887C7.4932 25.5911 6.55906 22.9029 6.55906 19.9997C6.55906 12.587 12.5873 6.55881 19.9999 6.55881C27.4126 6.55881 33.4408 12.587 33.4408 19.9997C33.4408 22.9029 32.5066 25.5911 30.9341 27.7887Z" fill="#285BD3"/>
</svg>
